<svg width="1630" height="883" viewBox="0 0 1630 883" fill="none" xmlns="http://www.w3.org/2000/svg">
<path d="M1630 883H0V0H1630V883ZM3.32993 880.241H1626.67V2.75938H3.32993V880.241Z" fill="#3F3D56"/>
<path d="M819.162 22.075H33.2993V860.925H819.162V22.075Z" fill="#B58FF2"/>
<path d="M1600.03 22.075H814.167V860.925H1600.03V22.075Z" fill="#756EEE"/>
<path d="M1037.08 802.552C1035.16 799.62 1033.45 796.597 1031.96 793.498C1025.4 779.917 1038.11 769.114 1038.65 768.66L1039.15 768.246L1039.14 767.664C1038.99 760.134 1035.48 582.834 1024.97 547.981C1015.48 516.509 986.098 507.919 979.248 506.322L979.264 506.166L945.483 502.579C958.126 433.586 970.796 274.054 827.674 241.203C822.711 240.168 817.653 239.476 812.552 239.135L812.243 241.883C817.145 242.216 822.006 242.877 826.778 243.86C967.387 276.136 954.693 434.005 942.179 502.228L891.021 496.795C877.698 490.601 862.65 479.485 860.884 449.658C879.25 436.878 891.025 418.765 893.799 399.025C894.037 399.049 894.276 399.06 894.515 399.061C901.921 399.061 907.945 391.881 907.945 383.056C907.945 374.231 901.921 367.051 894.515 367.051C893.025 366.999 891.569 367.43 890.455 368.252C885.321 354.124 875.446 341.498 861.981 331.845C848.515 322.192 832.016 315.911 814.406 313.733L813.931 316.465C835.36 319.047 854.951 327.937 869.119 341.508C883.287 355.079 891.084 372.424 891.084 390.368C891.084 408.313 883.287 425.657 869.119 439.228C854.951 452.799 835.36 461.689 813.931 464.272L814.406 467.004C830.177 465.11 845.089 459.868 857.694 451.788C859.976 479.651 874.324 491.521 886.604 497.84C872.569 513.746 849.832 523.376 818.964 526.442C817.315 526.607 815.667 526.744 814.019 526.867L814.316 529.615C815.998 529.49 817.68 529.35 819.361 529.183C851.234 526.017 874.786 515.999 889.38 499.402L889.957 499.464C890.065 499.513 890.175 499.565 890.283 499.614L890.354 499.506L975.671 508.567L951.101 744.168L951.093 744.244L951.095 744.321C951.096 744.331 951.161 746.497 951.161 750.309V750.628L951.163 750.631C951.291 771.421 950.065 792.203 947.492 812.884C944.737 833.389 940.555 849.079 935.06 859.545H891.954C892.163 856.301 892.957 853.101 894.31 850.052L898.165 840.895L891.382 848.798C887.581 852.883 883.1 856.502 878.074 859.545H814.167V862.305H879.16L879.597 862.041C883.04 859.959 886.26 857.634 889.219 855.092C888.784 857.024 888.579 858.987 888.608 860.952L888.639 862.305H1006.96L1007.34 862.116C1014.43 858.68 1014.43 852.333 1014.43 840.809C1014.43 833.581 1020.29 828.726 1026.49 823.586C1029.76 821.052 1032.72 818.26 1035.33 815.25C1040.63 808.665 1040.4 807.749 1037.08 802.552ZM891.554 371.228C892.814 370.111 893.154 369.811 894.515 369.811C899.99 369.811 904.615 375.877 904.615 383.056C904.615 390.187 900.053 396.22 894.626 396.3C894.51 396.057 894.358 395.827 894.173 395.616C894.317 393.878 894.414 392.131 894.414 390.368C894.408 383.933 893.422 377.524 891.479 371.293L891.554 371.228ZM961.597 767.87L951.653 806.33C953.894 786.659 954.409 767.444 954.487 756.122L961.597 767.87ZM1032.56 813.719C1030.06 816.575 1027.24 819.225 1024.14 821.634C1017.73 826.946 1011.1 832.438 1011.1 840.809C1011.1 852.115 1010.9 856.962 1006.04 859.545H938.674C943.995 848.905 948.055 833.443 950.754 813.532L954.319 809.187L965.099 767.501L954.491 749.976C954.488 746.751 954.437 744.739 954.426 744.329L978.956 509.117C986.158 510.882 1012.89 519.308 1021.74 548.649C1031.87 582.251 1035.57 755.987 1035.8 767.157C1033.27 769.51 1022.27 780.861 1028.87 794.522C1030.4 797.713 1032.16 800.826 1034.14 803.846C1036.96 808.252 1036.96 808.252 1032.56 813.719Z" fill="#3F3D56"/>
<path d="M814.784 241.087V549.24L742.108 556.262L677.341 562.54L654.681 564.72V564.734L653.615 564.83C653.615 564.83 649.869 555.324 646.922 536.367C641.827 503.6 639.113 442.604 662.34 353.738C693.324 235.126 786.712 237.527 814.784 241.087Z" fill="#2F2E41"/>
<path d="M809.789 804.151L814.784 804.358V860.815H584.302L589.214 845.445L595.408 826.074L624.178 802.233L630.705 796.825L809.789 804.151Z" fill="#2F2E41"/>
<path d="M814.784 315.7V464.817C802.214 466.921 789.252 466.82 776.733 464.52C764.213 462.219 752.415 457.77 742.097 451.46C731.78 445.149 723.173 437.117 716.831 427.881C710.489 418.646 706.553 408.411 705.277 397.837C704 387.264 705.412 376.586 709.42 366.492C713.429 356.399 719.945 347.113 728.549 339.234C737.154 331.355 747.655 325.057 759.376 320.747C771.097 316.437 783.779 314.21 796.602 314.21C802.391 314.204 808.167 314.656 813.851 315.562C814.167 315.603 814.467 315.645 814.784 315.7Z" fill="#FFB9B9"/>
<path d="M814.784 440.907V602.482L742.108 556.262L699.535 529.193L733.55 516.376C735.082 515.81 736.68 515.203 738.362 514.568C763.719 505.021 767.998 479.234 767.915 462.513C767.918 457.42 767.478 452.335 766.599 447.295L814.784 440.907Z" fill="#FFB9B9"/>
<path d="M809.789 528.131C811.454 528.006 813.119 527.868 814.784 527.703V860.815H788.111C771.145 856.551 757.775 852.399 757.775 852.399C757.775 852.399 676.591 843.624 651.883 846.549C650.501 846.714 648.87 846.907 647.022 847.128C632.12 848.894 603.866 851.778 589.214 845.445C574.612 839.14 573.497 823.687 612.457 788.878C615.87 785.829 619.6 782.628 623.646 779.275C623.646 779.275 676.591 750.026 669.532 741.251C662.473 732.476 651.883 694.452 651.883 694.452L652.05 686.933L654.681 564.734V564.72L655.413 530.655L733.55 516.376L747.186 524.806C767.755 528.388 788.837 529.508 809.789 528.131V528.131Z" fill="#575A89"/>
<path d="M666.872 860.816H624.731L641.298 855.325C641.298 855.325 647.725 856.305 656.915 858.388C659.979 859.078 663.342 859.878 666.872 860.816Z" fill="#FFB9B9"/>
<path d="M669.536 673.979C664.091 675.676 658.131 680.395 652.054 686.934C626.546 714.321 598.941 773.427 598.941 773.427C598.941 773.427 608.248 781.139 612.461 788.88C614.608 792.825 615.441 796.785 613.06 799.751C606.001 808.526 613.06 799.751 620.12 799.751C622.867 799.751 624.016 800.634 624.182 802.235C624.432 804.746 622.267 809.023 620.12 814.376C616.59 823.151 620.12 826.076 637.768 829.001C655.417 831.926 644.828 831.926 644.828 840.701C644.918 842.96 645.673 845.167 647.025 847.13C650.121 851.424 654.165 855.197 658.947 858.25C658.247 858.292 657.581 858.333 656.915 858.388C652.195 858.693 647.543 859.509 643.079 860.816H552.722C554.401 859.195 555.709 857.335 556.585 855.325C560.114 846.551 531.876 831.926 528.347 829.001C524.817 826.076 524.817 814.376 528.347 802.676C531.876 790.977 524.817 790.977 517.758 785.127C510.698 779.277 517.758 770.502 524.817 761.727C531.876 752.952 531.877 755.877 521.287 738.328C510.698 720.778 531.876 717.853 531.876 717.853C531.876 717.853 577.763 638.88 602.471 592.081C618.804 561.134 636.703 544.247 646.925 536.369C649.557 534.27 652.397 532.359 655.417 530.657L673.065 536.507C673.065 536.507 675.113 547.144 677.344 562.528C682.905 600.607 689.648 667.729 669.536 673.979Z" fill="#575A89"/>
<path d="M814.784 290.714V314.293C814.484 314.72 814.167 315.134 813.851 315.562C795.437 340.603 762.587 375.027 712.105 393.804L707.577 371.771L698.136 325.855L814.784 290.714Z" fill="#2F2E41"/>
<path d="M426.55 743.571C426.601 830.534 364.231 860.919 287.278 860.95C285.491 860.951 283.712 860.935 281.941 860.902C278.375 860.84 274.846 860.707 271.353 860.503C201.899 856.456 147.915 824.558 147.868 743.683C147.819 659.987 276.844 554.312 286.521 546.498C286.529 546.498 286.529 546.498 286.538 546.491C286.905 546.194 287.094 546.045 287.094 546.045C287.094 546.045 426.5 656.615 426.55 743.571Z" fill="#DB80F2"/>
<path d="M282.199 847.65L333.127 788.624L282.074 854.127L281.942 860.902C278.375 860.84 274.846 860.707 271.354 860.503L276.793 773.502L276.75 772.829L276.844 772.701L277.361 764.48L226.103 698.855L277.511 758.322L277.64 760.065L281.75 694.332L237.863 626.515L282.282 682.781L286.521 546.498L286.537 546.045L286.538 546.491L285.882 653.964L329.499 611.34L285.7 663.219L284.58 722.076L325.315 665.578L284.422 730.73L283.8 763.457L342.918 684.811L283.576 774.874L282.199 847.65Z" fill="#3F3D56"/>
<path d="M1375.43 609.992C1354.1 586.511 1330.74 564.345 1305.54 543.668L1304.39 542.76L1302.65 544.132C1288.4 555.637 1163.45 658.945 1163.5 742.304C1163.55 833.104 1230.23 856.727 1286.9 860.394L1286.9 860.402L1288.53 860.498C1292.03 860.704 1295.62 860.84 1299.2 860.902L1299.21 860.902L1300.87 860.93L1300.87 860.918C1302.02 860.932 1303.17 860.949 1304.33 860.949H1304.57C1346.76 860.932 1380.27 852.038 1404.19 834.513C1431.63 814.404 1445.53 783.342 1445.51 742.191C1445.48 696.892 1407.38 645.298 1375.43 609.992ZM1330.91 725.015L1299.21 773.132L1297.74 850.669L1310.81 835.526L1297.71 852.33L1297.6 858.097C1297.21 858.088 1296.83 858.076 1296.44 858.065C1294.76 858.017 1293.09 857.954 1291.43 857.875C1291.09 857.858 1290.74 857.843 1290.4 857.825L1295.75 772.194L1295.75 772.121L1295.73 771.802L1296.35 762.726L1283.13 745.809L1293.17 757.423L1293.27 758.77L1296.6 758.757L1300.71 693.025L1300.73 692.641L1274.68 652.39L1300.88 685.57L1300.11 725.831L1315.07 705.086L1300.06 729.002L1299.33 767.028L1330.91 725.015ZM1166.83 742.303C1166.81 707.631 1188.8 665.162 1232.18 616.071C1253.48 592.184 1276.83 569.605 1302.05 548.508L1298.05 676.947L1256.55 624.379L1253.69 625.787L1297.36 693.266L1293.61 753.192L1244.75 696.672L1242 698.224L1292.96 763.475L1292.5 770.9L1292.35 771.096L1292.42 772.124L1287.07 857.639C1231.83 854.039 1166.88 830.943 1166.83 742.303ZM1324.88 633.504L1301.88 660.748L1302.03 655.832L1324.88 633.504ZM1304.57 858.19C1303.35 858.187 1302.14 858.171 1300.93 858.157L1301.02 853.166L1351.82 787.993L1349.06 786.441L1301.24 841.871L1302.53 773.856L1361.67 684.093L1358.8 682.703L1302.85 757.128L1303.37 729.697L1344.08 664.834L1341.18 663.491L1303.64 715.562L1304.65 662.285L1348.16 610.752L1345.52 609.069L1304.86 648.801L1305.48 547.488C1323.35 562.176 1442.13 662.843 1442.18 742.191C1442.23 838.02 1367.38 858.164 1304.57 858.19Z" fill="#3F3D56"/>
</svg>
